<?xml version="1.0" encoding="UTF-8"?>
<svg id="_レイヤー_1" data-name="レイヤー 1" xmlns="http://www.w3.org/2000/svg" viewBox="0 0 48 48">
  <defs>
    <style>
      .cls-1 {
        fill: #ff6d00;
      }

      .cls-1, .cls-2 {
        stroke-width: 0px;
      }

      .cls-2 {
        fill: #fff;
      }
    </style>
  </defs>
  <circle class="cls-1" cx="24" cy="24" r="24"/>
  <g>
    <path class="cls-2" d="M25.26,22.99h-6.17v-4.12c0-1.2-.07-1.95-.2-2.24-.13-.3-.42-.45-.87-.45-.51,0-.83.18-.97.54s-.21,1.14-.21,2.34v11.02c0,1.15.07,1.9.21,2.26s.44.53.92.53.76-.18.9-.53c.14-.35.21-1.18.21-2.48v-2.98h6.17v.92c0,2.45-.17,4.2-.52,5.22-.35,1.03-1.11,1.93-2.3,2.7-1.19.77-2.65,1.16-4.39,1.16s-3.3-.33-4.47-.98-1.95-1.56-2.33-2.72-.57-2.9-.57-5.22v-6.93c0-1.71.06-2.99.18-3.85s.47-1.68,1.05-2.47,1.39-1.41,2.42-1.87,2.21-.68,3.55-.68c1.82,0,3.32.35,4.5,1.05s1.96,1.58,2.33,2.63.56,2.68.56,4.89v2.25Z"/>
    <path class="cls-2" d="M33.64,12.67v18.97h3.75v4.75h-9.92V12.67h6.17Z"/>
  </g>
</svg>